# xmcd
#
# Track frame offsets: 
#        150
#        18180
#        32447
#        44710
#        64490
#        81525
#        98740
#        120312
#        137660
#        153267
#        175160
#
# Disc length: 2530 seconds
#
# Revision: 4
# Processed by: cddbd v1.5PL3 Copyright (c) Steve Scherf et al.
# Submitted via: ExactAudioCopy v0.95a3
#
DISCID=8a09e00b
DTITLE=Mark Wills - And The Crowd Goes Wild
DYEAR=2003
DGENRE=Country
TTITLE0=And The Crowd Goes Wild
TTITLE1=He's A Cowboy
TTITLE2=That's A Woman
TTITLE3=Prisoner Of The Highway
TTITLE4=What Hurts The Most
TTITLE5=What She Sees In Me
TTITLE6=Married In Mexico
TTITLE7=Nothin' But A Suntan
TTITLE8=How Bad Do You Want It
TTITLE9=I Just Close My Eyes
TTITLE10=Singer In A Band
EXTD=ID3G:   2 YEAR: 2003
EXTT0=
EXTT1=
EXTT2=
EXTT3=
EXTT4=
EXTT5=
EXTT6=
EXTT7=
EXTT8=
EXTT9=
EXTT10=
PLAYORDER=
